<?xml version="1.0" encoding="UTF-8"?>
<svg version="1.1" xmlns="http://www.w3.org/2000/svg" width="80" height="70">
<path d="M0 0 C1.40625 1.375 1.40625 1.375 3.28125 3.625 C2.62125 5.935 1.96125 8.245 1.28125 10.625 C1.90773437 10.75777344 2.53421875 10.89054687 3.1796875 11.02734375 C3.99695313 11.20394531 4.81421875 11.38054688 5.65625 11.5625 C6.46835938 11.73652344 7.28046875 11.91054688 8.1171875 12.08984375 C10.28125 12.625 10.28125 12.625 12.28125 13.625 C12.28125 14.945 12.28125 16.265 12.28125 17.625 C10.79625 18.12 10.79625 18.12 9.28125 18.625 C6.78125 17.3125 6.78125 17.3125 4.28125 15.625 C1.23443939 13.59379293 0.68006676 13.37840125 -2.73046875 13.4296875 C-3.48779297 13.43613281 -4.24511719 13.44257813 -5.02539062 13.44921875 C-5.81107422 13.46597656 -6.59675781 13.48273437 -7.40625 13.5 C-8.20353516 13.50902344 -9.00082031 13.51804687 -9.82226562 13.52734375 C-11.787889 13.55088415 -13.75335775 13.58675453 -15.71875 13.625 C-15.71875 10.625 -15.71875 10.625 -14.71875 8.625 C-16.15614513 8.59787934 -17.59368863 8.57854933 -19.03125 8.5625 C-19.83175781 8.55089844 -20.63226563 8.53929687 -21.45703125 8.52734375 C-23.88736334 8.52842145 -23.88736334 8.52842145 -26.71875 9.625 C-26.71875 10.945 -26.71875 12.265 -26.71875 13.625 C-22.26375 15.605 -22.26375 15.605 -17.71875 17.625 C-18.21375 19.11 -18.21375 19.11 -18.71875 20.625 C-17.98269531 20.60179688 -17.24664062 20.57859375 -16.48828125 20.5546875 C-15.51246094 20.53664063 -14.53664062 20.51859375 -13.53125 20.5 C-12.08685547 20.46519531 -12.08685547 20.46519531 -10.61328125 20.4296875 C-5.0842779 20.80276465 -2.50894079 22.83480921 1.28125 26.625 C3.25004323 27.68511943 5.24560867 28.69970849 7.28125 29.625 C6.85653801 32.08832956 6.63384042 33.31965495 4.70703125 34.98828125 C3.04744826 36.525437 3.04744826 36.525437 3.3125 38.7109375 C3.4671875 39.46632812 3.621875 40.22171875 3.78125 41 C4.18683042 43.94880825 4.32507228 45.47667842 3.46875 48.375 C-2.39919457 54.41060013 -10.27077704 56.56613709 -18.44921875 56.828125 C-20.26817313 56.84929101 -22.08720139 56.86474462 -23.90625 56.875 C-24.80150391 56.895625 -25.69675781 56.91625 -26.61914062 56.9375 C-34.54400536 56.98327539 -43.35275101 55.75887016 -49.71875 50.625 C-50.59375 48.5625 -50.59375 48.5625 -50.71875 46.625 C-50.38875 45.965 -50.05875 45.305 -49.71875 44.625 C-50.37875 44.295 -51.03875 43.965 -51.71875 43.625 C-52.46875 40.1875 -52.46875 40.1875 -52.71875 36.625 C-52.05875 35.965 -51.39875 35.305 -50.71875 34.625 C-47.53055248 34.96416995 -44.76093951 35.61093683 -41.71875 36.625 C-38.98585707 36.85297562 -36.26832796 37.04168187 -33.53125 37.1875 C-32.40686523 37.25227539 -32.40686523 37.25227539 -31.25976562 37.31835938 C-29.41296625 37.42422685 -27.56588166 37.5250976 -25.71875 37.625 C-26.04875 38.285 -26.37875 38.945 -26.71875 39.625 C-28.03875 39.625 -29.35875 39.625 -30.71875 39.625 C-30.38875 40.285 -30.05875 40.945 -29.71875 41.625 C-26.83868606 42.54957659 -26.83868606 42.54957659 -23.71875 42.625 C-21.81916919 41.31181738 -21.81916919 41.31181738 -20.71875 39.625 C-23.14070448 36.75244934 -25.31617703 35.91661081 -28.90625 34.9375 C-30.25783203 34.56044922 -30.25783203 34.56044922 -31.63671875 34.17578125 C-32.32378906 33.99402344 -33.01085937 33.81226563 -33.71875 33.625 C-33.38875 32.635 -33.05875 31.645 -32.71875 30.625 C-33.27336914 30.54459473 -33.82798828 30.46418945 -34.39941406 30.38134766 C-36.92362398 30.01132023 -39.44613939 29.63077141 -41.96875 29.25 C-42.84144531 29.12367187 -43.71414062 28.99734375 -44.61328125 28.8671875 C-45.45761719 28.73828125 -46.30195312 28.609375 -47.171875 28.4765625 C-47.94692383 28.36135254 -48.72197266 28.24614258 -49.52050781 28.12744141 C-51.82783419 27.60006716 -53.65288374 26.76493019 -55.71875 25.625 C-55.52734375 23.73046875 -55.52734375 23.73046875 -54.71875 21.625 C-52.50390625 20.61328125 -52.50390625 20.61328125 -49.78125 19.9375 C-46.15439354 19.03697683 -46.15439354 19.03697683 -42.71875 17.625 C-43.04875 16.305 -43.37875 14.985 -43.71875 13.625 C-48.33875 12.305 -52.95875 10.985 -57.71875 9.625 C-57.71875 8.965 -57.71875 8.305 -57.71875 7.625 C-55.73875 7.295 -53.75875 6.965 -51.71875 6.625 C-51.6775 6.068125 -51.63625 5.51125 -51.59375 4.9375 C-50.00397373 0.73594842 -46.59109997 -1.52137703 -42.63671875 -3.32421875 C-29.76307152 -7.94610611 -11.19141624 -8.95313299 0 0 Z M-44.71875 21.625 C-46.69875 22.285 -48.67875 22.945 -50.71875 23.625 C-50.71875 23.955 -50.71875 24.285 -50.71875 24.625 C-48.40875 24.625 -46.09875 24.625 -43.71875 24.625 C-44.04875 23.635 -44.37875 22.645 -44.71875 21.625 Z M-6.71875 31.625 C-7.04875 32.615 -7.37875 33.605 -7.71875 34.625 C-6.460625 34.480625 -5.2025 34.33625 -3.90625 34.1875 C-3.19855469 34.10628906 -2.49085937 34.02507813 -1.76171875 33.94140625 C0.47521393 33.65329265 0.47521393 33.65329265 3.28125 32.625 C3.28125 31.965 3.28125 31.305 3.28125 30.625 C-1.80178686 30.51179144 -1.80178686 30.51179144 -6.71875 31.625 Z M-48.71875 40.625 C-47.71875 42.625 -47.71875 42.625 -47.71875 42.625 Z " fill="#FFF" transform="translate(66.71875,10.375)"/>
<path d="M0 0 C2.475 0.99 2.475 0.99 5 2 C5 2.99 5 3.98 5 5 C4.01 5.495 4.01 5.495 3 6 C2.01 5.67 1.02 5.34 0 5 C0 3.35 0 1.7 0 0 Z " fill="#FFF" transform="translate(66,25)"/>
<path d="M0 0 C1.65 0 3.3 0 5 0 C5 0.66 5 1.32 5 2 C3.68 2.33 2.36 2.66 1 3 C0.67 2.01 0.34 1.02 0 0 Z " fill="#FFF" transform="translate(45,20)"/>
<path d="M0 0 C1.32 0.33 2.64 0.66 4 1 C2.68 1.33 1.36 1.66 0 2 C0 1.34 0 0.68 0 0 Z " fill="#FFF" transform="translate(27,42)"/>
</svg>
